<mxfile host="app.diagrams.net" modified="2022-04-12T08:21:25.598Z" agent="5.0 (Windows NT 10.0; Win64; x64) AppleWebKit/537.36 (KHTML, like Gecko) Chrome/97.0.4692.71 Safari/537.36" etag="ddJrDFy-XqAQOeARGlp3" version="17.2.4" type="github" pages="3">
  <diagram id="m-U73xjPtrYBY18f9X35" name="页空间">
    <mxGraphModel dx="1422" dy="762" grid="1" gridSize="10" guides="1" tooltips="1" connect="1" arrows="1" fold="1" page="1" pageScale="1" pageWidth="827" pageHeight="1169" math="0" shadow="0">
      <root>
        <mxCell id="0" />
        <mxCell id="1" parent="0" />
        <mxCell id="9d3VMl4Xi2fpT_n2nl78-1" value="" style="strokeWidth=2;html=1;shape=mxgraph.flowchart.multi-document;whiteSpace=wrap;" parent="1" vertex="1">
          <mxGeometry x="30" y="80" width="170" height="180" as="geometry" />
        </mxCell>
        <mxCell id="9d3VMl4Xi2fpT_n2nl78-5" value="" style="group" parent="1" vertex="1" connectable="0">
          <mxGeometry x="50" y="120" width="120" height="110" as="geometry" />
        </mxCell>
        <mxCell id="9d3VMl4Xi2fpT_n2nl78-2" value="页节点段" style="rounded=0;whiteSpace=wrap;html=1;fillColor=#dae8fc;strokeColor=#6c8ebf;" parent="9d3VMl4Xi2fpT_n2nl78-5" vertex="1">
          <mxGeometry width="120" height="30" as="geometry" />
        </mxCell>
        <mxCell id="9d3VMl4Xi2fpT_n2nl78-3" value="非页节点段" style="rounded=0;whiteSpace=wrap;html=1;fillColor=#dae8fc;strokeColor=#6c8ebf;" parent="9d3VMl4Xi2fpT_n2nl78-5" vertex="1">
          <mxGeometry y="40" width="120" height="30" as="geometry" />
        </mxCell>
        <mxCell id="9d3VMl4Xi2fpT_n2nl78-4" value="回滚段" style="rounded=0;whiteSpace=wrap;html=1;fillColor=#dae8fc;strokeColor=#6c8ebf;" parent="9d3VMl4Xi2fpT_n2nl78-5" vertex="1">
          <mxGeometry y="80" width="120" height="30" as="geometry" />
        </mxCell>
        <mxCell id="9d3VMl4Xi2fpT_n2nl78-6" value="" style="rounded=0;whiteSpace=wrap;html=1;" parent="1" vertex="1">
          <mxGeometry x="240" y="100" width="160" height="140" as="geometry" />
        </mxCell>
        <mxCell id="9d3VMl4Xi2fpT_n2nl78-7" value="段" style="text;html=1;strokeColor=none;fillColor=none;align=center;verticalAlign=middle;whiteSpace=wrap;rounded=0;" parent="1" vertex="1">
          <mxGeometry x="240" y="100" width="50" height="20" as="geometry" />
        </mxCell>
        <mxCell id="9d3VMl4Xi2fpT_n2nl78-13" value="" style="group" parent="1" vertex="1" connectable="0">
          <mxGeometry x="280" y="120" width="100" height="100" as="geometry" />
        </mxCell>
        <mxCell id="9d3VMl4Xi2fpT_n2nl78-9" value="区" style="rounded=0;whiteSpace=wrap;html=1;fillColor=#ffe6cc;strokeColor=#d79b00;" parent="9d3VMl4Xi2fpT_n2nl78-13" vertex="1">
          <mxGeometry x="60" width="40" height="40" as="geometry" />
        </mxCell>
        <mxCell id="9d3VMl4Xi2fpT_n2nl78-10" value="区" style="rounded=0;whiteSpace=wrap;html=1;fillColor=#ffe6cc;strokeColor=#d79b00;" parent="9d3VMl4Xi2fpT_n2nl78-13" vertex="1">
          <mxGeometry y="60" width="40" height="40" as="geometry" />
        </mxCell>
        <mxCell id="9d3VMl4Xi2fpT_n2nl78-11" value="区" style="rounded=0;whiteSpace=wrap;html=1;fillColor=#ffe6cc;strokeColor=#d79b00;" parent="9d3VMl4Xi2fpT_n2nl78-13" vertex="1">
          <mxGeometry x="60" y="60" width="40" height="40" as="geometry" />
        </mxCell>
        <mxCell id="9d3VMl4Xi2fpT_n2nl78-12" value="区" style="rounded=0;whiteSpace=wrap;html=1;fillColor=#ffe6cc;strokeColor=#d79b00;" parent="9d3VMl4Xi2fpT_n2nl78-13" vertex="1">
          <mxGeometry width="40" height="40" as="geometry" />
        </mxCell>
        <mxCell id="9d3VMl4Xi2fpT_n2nl78-14" value="" style="rounded=0;whiteSpace=wrap;html=1;" parent="1" vertex="1">
          <mxGeometry x="440" y="100" width="160" height="140" as="geometry" />
        </mxCell>
        <mxCell id="9d3VMl4Xi2fpT_n2nl78-15" value="区" style="text;html=1;strokeColor=none;fillColor=none;align=center;verticalAlign=middle;whiteSpace=wrap;rounded=0;" parent="1" vertex="1">
          <mxGeometry x="440" y="100" width="50" height="20" as="geometry" />
        </mxCell>
        <mxCell id="9d3VMl4Xi2fpT_n2nl78-16" value="" style="group" parent="1" vertex="1" connectable="0">
          <mxGeometry x="480" y="120" width="100" height="100" as="geometry" />
        </mxCell>
        <mxCell id="9d3VMl4Xi2fpT_n2nl78-17" value="页" style="rounded=0;whiteSpace=wrap;html=1;fillColor=#d5e8d4;strokeColor=#82b366;" parent="9d3VMl4Xi2fpT_n2nl78-16" vertex="1">
          <mxGeometry x="60" width="40" height="40" as="geometry" />
        </mxCell>
        <mxCell id="9d3VMl4Xi2fpT_n2nl78-18" value="页" style="rounded=0;whiteSpace=wrap;html=1;fillColor=#d5e8d4;strokeColor=#82b366;" parent="9d3VMl4Xi2fpT_n2nl78-16" vertex="1">
          <mxGeometry y="60" width="40" height="40" as="geometry" />
        </mxCell>
        <mxCell id="9d3VMl4Xi2fpT_n2nl78-19" value="页" style="rounded=0;whiteSpace=wrap;html=1;fillColor=#d5e8d4;strokeColor=#82b366;" parent="9d3VMl4Xi2fpT_n2nl78-16" vertex="1">
          <mxGeometry x="60" y="60" width="40" height="40" as="geometry" />
        </mxCell>
        <mxCell id="9d3VMl4Xi2fpT_n2nl78-20" value="页" style="rounded=0;whiteSpace=wrap;html=1;fillColor=#d5e8d4;strokeColor=#82b366;" parent="9d3VMl4Xi2fpT_n2nl78-16" vertex="1">
          <mxGeometry width="40" height="40" as="geometry" />
        </mxCell>
        <mxCell id="9d3VMl4Xi2fpT_n2nl78-21" value="" style="rounded=0;whiteSpace=wrap;html=1;" parent="1" vertex="1">
          <mxGeometry x="640" y="100" width="160" height="140" as="geometry" />
        </mxCell>
        <mxCell id="9d3VMl4Xi2fpT_n2nl78-22" value="页" style="text;html=1;strokeColor=none;fillColor=none;align=center;verticalAlign=middle;whiteSpace=wrap;rounded=0;" parent="1" vertex="1">
          <mxGeometry x="640" y="100" width="50" height="20" as="geometry" />
        </mxCell>
        <mxCell id="9d3VMl4Xi2fpT_n2nl78-23" value="" style="group" parent="1" vertex="1" connectable="0">
          <mxGeometry x="680" y="120" width="100" height="100" as="geometry" />
        </mxCell>
        <mxCell id="9d3VMl4Xi2fpT_n2nl78-24" value="行" style="rounded=0;whiteSpace=wrap;html=1;fillColor=#e1d5e7;strokeColor=#9673a6;" parent="9d3VMl4Xi2fpT_n2nl78-23" vertex="1">
          <mxGeometry x="60" width="40" height="40" as="geometry" />
        </mxCell>
        <mxCell id="9d3VMl4Xi2fpT_n2nl78-25" value="行" style="rounded=0;whiteSpace=wrap;html=1;fillColor=#e1d5e7;strokeColor=#9673a6;" parent="9d3VMl4Xi2fpT_n2nl78-23" vertex="1">
          <mxGeometry y="60" width="40" height="40" as="geometry" />
        </mxCell>
        <mxCell id="9d3VMl4Xi2fpT_n2nl78-26" value="行" style="rounded=0;whiteSpace=wrap;html=1;fillColor=#e1d5e7;strokeColor=#9673a6;" parent="9d3VMl4Xi2fpT_n2nl78-23" vertex="1">
          <mxGeometry x="60" y="60" width="40" height="40" as="geometry" />
        </mxCell>
        <mxCell id="9d3VMl4Xi2fpT_n2nl78-27" value="行" style="rounded=0;whiteSpace=wrap;html=1;fillColor=#e1d5e7;strokeColor=#9673a6;" parent="9d3VMl4Xi2fpT_n2nl78-23" vertex="1">
          <mxGeometry width="40" height="40" as="geometry" />
        </mxCell>
      </root>
    </mxGraphModel>
  </diagram>
  <diagram id="pEb5fNjY-Qu-yIufXaBf" name="GP.mmgr.vmtracker">
    <mxGraphModel dx="2249" dy="1931" grid="1" gridSize="10" guides="1" tooltips="1" connect="1" arrows="1" fold="1" page="1" pageScale="1" pageWidth="827" pageHeight="1169" math="0" shadow="0">
      <root>
        <mxCell id="0" />
        <mxCell id="1" parent="0" />
        <mxCell id="DiLrOkDjU9yglOGz8_8y-9" style="edgeStyle=orthogonalEdgeStyle;rounded=0;orthogonalLoop=1;jettySize=auto;html=1;entryX=0.5;entryY=0;entryDx=0;entryDy=0;fontColor=#000000;" parent="1" source="DiLrOkDjU9yglOGz8_8y-1" target="DiLrOkDjU9yglOGz8_8y-7" edge="1">
          <mxGeometry relative="1" as="geometry" />
        </mxCell>
        <mxCell id="DiLrOkDjU9yglOGz8_8y-1" value="&lt;div style=&quot;font-family: &amp;#34;consolas&amp;#34; , &amp;#34;courier new&amp;#34; , monospace ; font-size: 14px ; line-height: 19px&quot;&gt;&lt;span style=&quot;background-color: rgb(255 , 255 , 255)&quot;&gt;VmemTracker_Init&lt;/span&gt;&lt;/div&gt;" style="rounded=0;whiteSpace=wrap;html=1;fillColor=none;" parent="1" vertex="1">
          <mxGeometry x="40" y="680" width="200" height="40" as="geometry" />
        </mxCell>
        <mxCell id="DiLrOkDjU9yglOGz8_8y-2" value=":&lt;span style=&quot;font-family: &amp;#34;consolas&amp;#34; , &amp;#34;courier new&amp;#34; , monospace ; font-size: 14px&quot;&gt;VmemTracker&lt;/span&gt;" style="shape=umlLifeline;perimeter=lifelinePerimeter;whiteSpace=wrap;html=1;container=1;collapsible=0;recursiveResize=0;outlineConnect=0;labelBackgroundColor=#FFFFFF;fontColor=#000000;fillColor=none;" parent="1" vertex="1">
          <mxGeometry x="280" y="-130" width="100" height="510" as="geometry" />
        </mxCell>
        <mxCell id="DiLrOkDjU9yglOGz8_8y-3" value="" style="html=1;points=[];perimeter=orthogonalPerimeter;labelBackgroundColor=#FFFFFF;fontColor=#000000;fillColor=none;" parent="DiLrOkDjU9yglOGz8_8y-2" vertex="1">
          <mxGeometry x="45" y="60" width="10" height="380" as="geometry" />
        </mxCell>
        <mxCell id="DiLrOkDjU9yglOGz8_8y-10" style="edgeStyle=orthogonalEdgeStyle;rounded=0;orthogonalLoop=1;jettySize=auto;html=1;exitX=0.5;exitY=1;exitDx=0;exitDy=0;entryX=0.5;entryY=0;entryDx=0;entryDy=0;fontColor=#000000;" parent="1" source="DiLrOkDjU9yglOGz8_8y-7" target="DiLrOkDjU9yglOGz8_8y-8" edge="1">
          <mxGeometry relative="1" as="geometry" />
        </mxCell>
        <mxCell id="DiLrOkDjU9yglOGz8_8y-12" style="edgeStyle=orthogonalEdgeStyle;rounded=0;orthogonalLoop=1;jettySize=auto;html=1;exitX=1;exitY=0.5;exitDx=0;exitDy=0;entryX=0;entryY=0.5;entryDx=0;entryDy=0;fontColor=#000000;" parent="1" source="DiLrOkDjU9yglOGz8_8y-7" target="DiLrOkDjU9yglOGz8_8y-11" edge="1">
          <mxGeometry relative="1" as="geometry" />
        </mxCell>
        <mxCell id="DiLrOkDjU9yglOGz8_8y-7" value="&lt;div style=&quot;font-family: &amp;#34;consolas&amp;#34; , &amp;#34;courier new&amp;#34; , monospace ; font-size: 14px ; line-height: 19px&quot;&gt;&lt;div style=&quot;color: rgb(212 , 212 , 212) ; background-color: rgb(30 , 30 , 30) ; font-family: &amp;#34;consolas&amp;#34; , &amp;#34;courier new&amp;#34; , monospace ; line-height: 19px&quot;&gt;&lt;span style=&quot;color: #dcdcaa&quot;&gt;IdleTracker_Init&lt;/span&gt;&lt;/div&gt;&lt;/div&gt;" style="rounded=0;whiteSpace=wrap;html=1;fillColor=none;" parent="1" vertex="1">
          <mxGeometry x="40" y="760" width="200" height="40" as="geometry" />
        </mxCell>
        <mxCell id="DiLrOkDjU9yglOGz8_8y-17" style="edgeStyle=orthogonalEdgeStyle;rounded=0;orthogonalLoop=1;jettySize=auto;html=1;exitX=0.5;exitY=1;exitDx=0;exitDy=0;entryX=0.5;entryY=0;entryDx=0;entryDy=0;fontColor=#000000;" parent="1" source="DiLrOkDjU9yglOGz8_8y-8" target="DiLrOkDjU9yglOGz8_8y-16" edge="1">
          <mxGeometry relative="1" as="geometry" />
        </mxCell>
        <mxCell id="DiLrOkDjU9yglOGz8_8y-8" value="&lt;div style=&quot;font-family: &amp;#34;consolas&amp;#34; , &amp;#34;courier new&amp;#34; , monospace ; font-size: 14px ; line-height: 19px&quot;&gt;&lt;div style=&quot;color: rgb(212 , 212 , 212) ; background-color: rgb(30 , 30 , 30) ; font-family: &amp;#34;consolas&amp;#34; , &amp;#34;courier new&amp;#34; , monospace ; line-height: 19px&quot;&gt;&lt;div style=&quot;font-family: &amp;#34;consolas&amp;#34; , &amp;#34;courier new&amp;#34; , monospace ; line-height: 19px&quot;&gt;&lt;span style=&quot;color: #dcdcaa&quot;&gt;RunawayCleaner_Init&lt;/span&gt;&lt;/div&gt;&lt;/div&gt;&lt;/div&gt;" style="rounded=0;whiteSpace=wrap;html=1;fillColor=none;" parent="1" vertex="1">
          <mxGeometry x="40" y="840" width="200" height="40" as="geometry" />
        </mxCell>
        <mxCell id="DiLrOkDjU9yglOGz8_8y-11" value="&lt;div style=&quot;font-family: &amp;#34;consolas&amp;#34; , &amp;#34;courier new&amp;#34; , monospace ; font-size: 14px ; line-height: 19px&quot;&gt;&lt;div style=&quot;color: rgb(212 , 212 , 212) ; background-color: rgb(30 , 30 , 30) ; font-family: &amp;#34;consolas&amp;#34; , &amp;#34;courier new&amp;#34; , monospace ; line-height: 19px&quot;&gt;&lt;div style=&quot;font-family: &amp;#34;consolas&amp;#34; , &amp;#34;courier new&amp;#34; , monospace ; line-height: 19px&quot;&gt;&lt;span style=&quot;color: #dcdcaa&quot;&gt;IdleTracker_ActivateProcess&lt;/span&gt;&lt;/div&gt;&lt;/div&gt;&lt;/div&gt;" style="rounded=0;whiteSpace=wrap;html=1;fillColor=none;" parent="1" vertex="1">
          <mxGeometry x="320" y="760" width="240" height="40" as="geometry" />
        </mxCell>
        <mxCell id="DiLrOkDjU9yglOGz8_8y-13" value="&lt;div style=&quot;font-family: &amp;#34;consolas&amp;#34; , &amp;#34;courier new&amp;#34; , monospace ; font-size: 14px ; line-height: 19px&quot;&gt;&lt;div&gt;&lt;span style=&quot;background-color: rgb(255 , 255 , 255)&quot;&gt;//&lt;span style=&quot;font-family: &amp;#34;consolas&amp;#34; , &amp;#34;courier new&amp;#34; , monospace&quot;&gt;Marks the current process as active to the runaway detector&lt;/span&gt;&lt;/span&gt;&lt;/div&gt;&lt;div&gt;&lt;span style=&quot;background-color: rgb(255 , 255 , 255)&quot;&gt;&lt;br&gt;&lt;/span&gt;&lt;/div&gt;&lt;div&gt;&lt;span style=&quot;background-color: rgb(255 , 255 , 255)&quot;&gt;MySessionState-&amp;gt;activeProcessCount += 1;&lt;/span&gt;&lt;/div&gt;&lt;div&gt;&lt;span style=&quot;background-color: rgb(255 , 255 , 255)&quot;&gt;activationVersion = *CurrentVersion;&lt;/span&gt;&lt;/div&gt;&lt;div&gt;&lt;span style=&quot;background-color: rgb(255 , 255 , 255)&quot;&gt;isProcessActive = true;&lt;/span&gt;&lt;/div&gt;&lt;/div&gt;" style="shape=callout;whiteSpace=wrap;html=1;perimeter=calloutPerimeter;labelBackgroundColor=#FFFFFF;fontColor=#000000;fillColor=none;align=left;" parent="1" vertex="1">
          <mxGeometry x="280" y="620" width="480" height="140" as="geometry" />
        </mxCell>
        <mxCell id="DiLrOkDjU9yglOGz8_8y-15" value="&lt;div style=&quot;font-family: &amp;#34;consolas&amp;#34; , &amp;#34;courier new&amp;#34; , monospace ; font-size: 14px ; line-height: 19px&quot;&gt;&lt;div&gt;&lt;span style=&quot;background-color: rgb(255 , 255 , 255)&quot;&gt;beginCleanupRunawayVersion = 0;&lt;/span&gt;&lt;/div&gt;&lt;div&gt;&lt;span style=&quot;background-color: rgb(255 , 255 , 255)&quot;&gt;&amp;nbsp; &amp;nbsp; endCleanupRunawayVersion = 0;&lt;/span&gt;&lt;/div&gt;&lt;/div&gt;" style="ellipse;shape=cloud;whiteSpace=wrap;html=1;labelBackgroundColor=#FFFFFF;fontColor=#000000;fillColor=none;" parent="1" vertex="1">
          <mxGeometry x="240" y="810" width="360" height="80" as="geometry" />
        </mxCell>
        <mxCell id="DiLrOkDjU9yglOGz8_8y-16" value="&lt;div style=&quot;color: rgb(212 , 212 , 212) ; background-color: rgb(30 , 30 , 30) ; font-family: &amp;#34;consolas&amp;#34; , &amp;#34;courier new&amp;#34; , monospace ; font-size: 14px ; line-height: 19px&quot;&gt;&lt;span style=&quot;color: #9cdcfe&quot;&gt;vmemTrackerInited&lt;/span&gt; = &lt;span style=&quot;color: #569cd6&quot;&gt;true&lt;/span&gt;;&lt;/div&gt;" style="rounded=0;whiteSpace=wrap;html=1;labelBackgroundColor=#FFFFFF;fontColor=#000000;fillColor=none;" parent="1" vertex="1">
          <mxGeometry x="40" y="920" width="200" height="40" as="geometry" />
        </mxCell>
        <mxCell id="DiLrOkDjU9yglOGz8_8y-56" style="edgeStyle=orthogonalEdgeStyle;rounded=0;orthogonalLoop=1;jettySize=auto;html=1;entryX=0.5;entryY=0;entryDx=0;entryDy=0;fontColor=#000000;" parent="1" source="DiLrOkDjU9yglOGz8_8y-18" target="DiLrOkDjU9yglOGz8_8y-52" edge="1">
          <mxGeometry relative="1" as="geometry" />
        </mxCell>
        <mxCell id="DiLrOkDjU9yglOGz8_8y-18" value="&lt;div style=&quot;font-family: &amp;#34;consolas&amp;#34; , &amp;#34;courier new&amp;#34; , monospace ; font-size: 14px ; line-height: 19px&quot;&gt;&lt;div style=&quot;font-family: &amp;#34;consolas&amp;#34; , &amp;#34;courier new&amp;#34; , monospace ; line-height: 19px&quot;&gt;VmemTracker_ShmemInit&lt;/div&gt;&lt;/div&gt;" style="rounded=0;whiteSpace=wrap;html=1;labelBackgroundColor=#FFFFFF;fontColor=#000000;fillColor=none;" parent="1" vertex="1">
          <mxGeometry x="-280" y="680" width="200" height="40" as="geometry" />
        </mxCell>
        <mxCell id="DiLrOkDjU9yglOGz8_8y-19" value=":&lt;span style=&quot;font-family: &amp;#34;consolas&amp;#34; , &amp;#34;courier new&amp;#34; , monospace ; font-size: 14px&quot;&gt;ResGroup&lt;/span&gt;" style="shape=umlLifeline;perimeter=lifelinePerimeter;whiteSpace=wrap;html=1;container=1;collapsible=0;recursiveResize=0;outlineConnect=0;labelBackgroundColor=#FFFFFF;fontColor=#000000;fillColor=none;" parent="1" vertex="1">
          <mxGeometry x="-200" y="-120" width="120" height="510" as="geometry" />
        </mxCell>
        <mxCell id="DiLrOkDjU9yglOGz8_8y-20" value="" style="html=1;points=[];perimeter=orthogonalPerimeter;labelBackgroundColor=#FFFFFF;fontColor=#000000;fillColor=none;" parent="DiLrOkDjU9yglOGz8_8y-19" vertex="1">
          <mxGeometry x="55" y="60" width="10" height="380" as="geometry" />
        </mxCell>
        <mxCell id="DiLrOkDjU9yglOGz8_8y-23" value=":&lt;span style=&quot;font-family: &amp;#34;consolas&amp;#34; , &amp;#34;courier new&amp;#34; , monospace ; font-size: 14px&quot;&gt;resource_mgr&lt;/span&gt;" style="shape=umlLifeline;perimeter=lifelinePerimeter;whiteSpace=wrap;html=1;container=1;collapsible=0;recursiveResize=0;outlineConnect=0;labelBackgroundColor=#FFFFFF;fontColor=#000000;fillColor=none;" parent="1" vertex="1">
          <mxGeometry x="-520" y="-120" width="150" height="510" as="geometry" />
        </mxCell>
        <mxCell id="DiLrOkDjU9yglOGz8_8y-24" value="" style="html=1;points=[];perimeter=orthogonalPerimeter;labelBackgroundColor=#FFFFFF;fontColor=#000000;fillColor=none;" parent="DiLrOkDjU9yglOGz8_8y-23" vertex="1">
          <mxGeometry x="70.5" y="65" width="10" height="380" as="geometry" />
        </mxCell>
        <mxCell id="DiLrOkDjU9yglOGz8_8y-38" value="InitResManager" style="text;align=center;fontStyle=1;verticalAlign=middle;spacingLeft=3;spacingRight=3;strokeColor=none;rotatable=0;points=[[0,0.5],[1,0.5]];portConstraint=eastwest;labelBackgroundColor=none;fontColor=#000000;fillColor=none;" parent="DiLrOkDjU9yglOGz8_8y-23" vertex="1">
          <mxGeometry x="80.5" y="65" width="106.36" height="20" as="geometry" />
        </mxCell>
        <mxCell id="DiLrOkDjU9yglOGz8_8y-28" value=":&lt;span style=&quot;font-family: &amp;#34;consolas&amp;#34; , &amp;#34;courier new&amp;#34; , monospace ; font-size: 14px&quot;&gt;mem_prot&lt;/span&gt;" style="shape=umlLifeline;perimeter=lifelinePerimeter;whiteSpace=wrap;html=1;container=1;collapsible=0;recursiveResize=0;outlineConnect=0;labelBackgroundColor=#FFFFFF;fontColor=#000000;fillColor=none;" parent="1" vertex="1">
          <mxGeometry x="-40" y="-120" width="120" height="510" as="geometry" />
        </mxCell>
        <mxCell id="DiLrOkDjU9yglOGz8_8y-29" value="" style="html=1;points=[];perimeter=orthogonalPerimeter;labelBackgroundColor=#FFFFFF;fontColor=#000000;fillColor=none;" parent="DiLrOkDjU9yglOGz8_8y-28" vertex="1">
          <mxGeometry x="55" y="60" width="10" height="380" as="geometry" />
        </mxCell>
        <mxCell id="DiLrOkDjU9yglOGz8_8y-46" style="edgeStyle=orthogonalEdgeStyle;rounded=0;orthogonalLoop=1;jettySize=auto;html=1;fontColor=#000000;exitX=1.05;exitY=0.166;exitDx=0;exitDy=0;exitPerimeter=0;" parent="1" source="DiLrOkDjU9yglOGz8_8y-24" target="DiLrOkDjU9yglOGz8_8y-28" edge="1">
          <mxGeometry relative="1" as="geometry">
            <mxPoint x="-389.5" y="7" as="sourcePoint" />
            <mxPoint x="-140.5" y="7" as="targetPoint" />
            <Array as="points">
              <mxPoint x="-100" y="8" />
              <mxPoint x="-100" y="8" />
            </Array>
          </mxGeometry>
        </mxCell>
        <mxCell id="DiLrOkDjU9yglOGz8_8y-47" value="&lt;div style=&quot;color: rgb(212 , 212 , 212) ; background-color: rgb(30 , 30 , 30) ; font-family: &amp;#34;consolas&amp;#34; , &amp;#34;courier new&amp;#34; , monospace ; font-size: 14px ; line-height: 19px&quot;&gt;&lt;span style=&quot;color: #dcdcaa&quot;&gt;GPMemoryProtect_TrackStartupMemory&lt;/span&gt;&lt;/div&gt;" style="edgeLabel;html=1;align=center;verticalAlign=middle;resizable=0;points=[];fontColor=#000000;" parent="DiLrOkDjU9yglOGz8_8y-46" vertex="1" connectable="0">
          <mxGeometry x="-0.241" y="-2" relative="1" as="geometry">
            <mxPoint x="-25" as="offset" />
          </mxGeometry>
        </mxCell>
        <mxCell id="DiLrOkDjU9yglOGz8_8y-48" style="edgeStyle=orthogonalEdgeStyle;rounded=0;orthogonalLoop=1;jettySize=auto;html=1;fontColor=#000000;" parent="1" source="DiLrOkDjU9yglOGz8_8y-24" target="DiLrOkDjU9yglOGz8_8y-19" edge="1">
          <mxGeometry relative="1" as="geometry">
            <Array as="points">
              <mxPoint x="-290" y="-30" />
              <mxPoint x="-290" y="-30" />
            </Array>
          </mxGeometry>
        </mxCell>
        <mxCell id="DiLrOkDjU9yglOGz8_8y-49" value="&lt;div style=&quot;color: rgb(212 , 212 , 212) ; background-color: rgb(30 , 30 , 30) ; font-family: &amp;#34;consolas&amp;#34; , &amp;#34;courier new&amp;#34; , monospace ; font-size: 14px ; line-height: 19px&quot;&gt;&lt;span style=&quot;color: #dcdcaa&quot;&gt;InitResGroups&lt;/span&gt;&lt;/div&gt;" style="edgeLabel;html=1;align=center;verticalAlign=middle;resizable=0;points=[];fontColor=#000000;" parent="DiLrOkDjU9yglOGz8_8y-48" vertex="1" connectable="0">
          <mxGeometry x="-0.0669" relative="1" as="geometry">
            <mxPoint x="1" as="offset" />
          </mxGeometry>
        </mxCell>
        <mxCell id="DiLrOkDjU9yglOGz8_8y-50" style="edgeStyle=orthogonalEdgeStyle;rounded=0;orthogonalLoop=1;jettySize=auto;html=1;fontColor=#000000;" parent="1" target="DiLrOkDjU9yglOGz8_8y-2" edge="1">
          <mxGeometry relative="1" as="geometry">
            <mxPoint x="25" y="13" as="sourcePoint" />
            <mxPoint x="209.5" y="13" as="targetPoint" />
            <Array as="points">
              <mxPoint x="240" y="13" />
              <mxPoint x="240" y="13" />
            </Array>
          </mxGeometry>
        </mxCell>
        <mxCell id="DiLrOkDjU9yglOGz8_8y-51" value="&lt;div style=&quot;color: rgb(212 , 212 , 212) ; background-color: rgb(30 , 30 , 30) ; font-family: &amp;#34;consolas&amp;#34; , &amp;#34;courier new&amp;#34; , monospace ; font-size: 14px ; line-height: 19px&quot;&gt;&lt;span style=&quot;color: #dcdcaa&quot;&gt;VmemTracker_RegisterStartupMemory&lt;/span&gt;&lt;/div&gt;" style="edgeLabel;html=1;align=center;verticalAlign=middle;resizable=0;points=[];fontColor=#000000;" parent="DiLrOkDjU9yglOGz8_8y-50" vertex="1" connectable="0">
          <mxGeometry x="-0.2304" y="-1" relative="1" as="geometry">
            <mxPoint x="38" y="-4" as="offset" />
          </mxGeometry>
        </mxCell>
        <mxCell id="DiLrOkDjU9yglOGz8_8y-57" style="edgeStyle=orthogonalEdgeStyle;rounded=0;orthogonalLoop=1;jettySize=auto;html=1;entryX=0.5;entryY=0;entryDx=0;entryDy=0;fontColor=#000000;" parent="1" source="DiLrOkDjU9yglOGz8_8y-52" target="DiLrOkDjU9yglOGz8_8y-53" edge="1">
          <mxGeometry relative="1" as="geometry" />
        </mxCell>
        <mxCell id="DiLrOkDjU9yglOGz8_8y-52" value="&lt;div style=&quot;color: rgb(212 , 212 , 212) ; background-color: rgb(30 , 30 , 30) ; font-family: &amp;#34;consolas&amp;#34; , &amp;#34;courier new&amp;#34; , monospace ; font-size: 14px ; line-height: 19px&quot;&gt;&lt;div style=&quot;font-family: &amp;#34;consolas&amp;#34; , &amp;#34;courier new&amp;#34; , monospace ; line-height: 19px&quot;&gt;&lt;div style=&quot;font-family: &amp;#34;consolas&amp;#34; , &amp;#34;courier new&amp;#34; , monospace ; line-height: 19px&quot;&gt;&lt;span style=&quot;color: #dcdcaa&quot;&gt;EventVersion_ShmemInit&lt;/span&gt;&lt;/div&gt;&lt;/div&gt;&lt;/div&gt;" style="rounded=0;whiteSpace=wrap;html=1;labelBackgroundColor=#FFFFFF;fontColor=#000000;fillColor=none;" parent="1" vertex="1">
          <mxGeometry x="-280" y="760" width="200" height="40" as="geometry" />
        </mxCell>
        <mxCell id="DiLrOkDjU9yglOGz8_8y-58" style="edgeStyle=orthogonalEdgeStyle;rounded=0;orthogonalLoop=1;jettySize=auto;html=1;fontColor=#000000;" parent="1" source="DiLrOkDjU9yglOGz8_8y-53" target="DiLrOkDjU9yglOGz8_8y-54" edge="1">
          <mxGeometry relative="1" as="geometry" />
        </mxCell>
        <mxCell id="DiLrOkDjU9yglOGz8_8y-53" value="&lt;div style=&quot;color: rgb(212 , 212 , 212) ; background-color: rgb(30 , 30 , 30) ; font-family: &amp;#34;consolas&amp;#34; , &amp;#34;courier new&amp;#34; , monospace ; font-size: 14px ; line-height: 19px&quot;&gt;&lt;div style=&quot;font-family: &amp;#34;consolas&amp;#34; , &amp;#34;courier new&amp;#34; , monospace ; line-height: 19px&quot;&gt;&lt;div style=&quot;font-family: &amp;#34;consolas&amp;#34; , &amp;#34;courier new&amp;#34; , monospace ; line-height: 19px&quot;&gt;&lt;span style=&quot;color: #dcdcaa&quot;&gt;RedZoneHandler_ShmemInit&lt;/span&gt;&lt;/div&gt;&lt;/div&gt;&lt;/div&gt;" style="rounded=0;whiteSpace=wrap;html=1;labelBackgroundColor=#FFFFFF;fontColor=#000000;fillColor=none;" parent="1" vertex="1">
          <mxGeometry x="-280" y="840" width="200" height="40" as="geometry" />
        </mxCell>
        <mxCell id="DiLrOkDjU9yglOGz8_8y-59" style="edgeStyle=orthogonalEdgeStyle;rounded=0;orthogonalLoop=1;jettySize=auto;html=1;exitX=0.5;exitY=1;exitDx=0;exitDy=0;entryX=0.5;entryY=0;entryDx=0;entryDy=0;fontColor=#000000;" parent="1" source="DiLrOkDjU9yglOGz8_8y-54" target="DiLrOkDjU9yglOGz8_8y-55" edge="1">
          <mxGeometry relative="1" as="geometry" />
        </mxCell>
        <mxCell id="DiLrOkDjU9yglOGz8_8y-54" value="&#xa;&#xa;&lt;div style=&quot;color: rgb(212, 212, 212); background-color: rgb(30, 30, 30); font-family: consolas, &amp;quot;courier new&amp;quot;, monospace; font-weight: normal; font-size: 14px; line-height: 19px;&quot;&gt;&lt;div&gt;&lt;span style=&quot;color: #dcdcaa&quot;&gt;IdleTracker_ShmemInit&lt;/span&gt;&lt;/div&gt;&lt;/div&gt;&#xa;&#xa;" style="rounded=0;whiteSpace=wrap;html=1;labelBackgroundColor=#FFFFFF;fontColor=#000000;fillColor=none;" parent="1" vertex="1">
          <mxGeometry x="-280" y="920" width="200" height="40" as="geometry" />
        </mxCell>
        <mxCell id="DiLrOkDjU9yglOGz8_8y-55" value="&lt;div style=&quot;color: rgb(212 , 212 , 212) ; background-color: rgb(30 , 30 , 30) ; font-family: &amp;#34;consolas&amp;#34; , &amp;#34;courier new&amp;#34; , monospace ; font-size: 14px ; line-height: 19px&quot;&gt;*&lt;span style=&quot;color: #9cdcfe&quot;&gt;segmentVmemChunks&lt;/span&gt; = &lt;span style=&quot;color: #b5cea8&quot;&gt;0&lt;/span&gt;;&lt;/div&gt;" style="rounded=0;whiteSpace=wrap;html=1;labelBackgroundColor=#FFFFFF;fontColor=#000000;fillColor=none;" parent="1" vertex="1">
          <mxGeometry x="-280" y="1000" width="200" height="40" as="geometry" />
        </mxCell>
        <mxCell id="DiLrOkDjU9yglOGz8_8y-60" value="&lt;div style=&quot;font-family: &amp;#34;consolas&amp;#34; , &amp;#34;courier new&amp;#34; , monospace ; font-size: 14px ; line-height: 19px&quot;&gt;vmemChunksQuota = gp_vmem_protect_limit&lt;/div&gt;&lt;div style=&quot;font-family: &amp;#34;consolas&amp;#34; , &amp;#34;courier new&amp;#34; , monospace ; font-size: 14px ; line-height: 19px&quot;&gt;&lt;div style=&quot;font-family: &amp;#34;consolas&amp;#34; , &amp;#34;courier new&amp;#34; , monospace ; line-height: 19px&quot;&gt;maxChunksPerQuery = gp_vmem_limit_per_query to chunck&lt;/div&gt;&lt;/div&gt;" style="shape=callout;whiteSpace=wrap;html=1;perimeter=calloutPerimeter;labelBackgroundColor=none;fontColor=#000000;fillColor=none;align=left;" parent="1" vertex="1">
          <mxGeometry x="-400" y="600" width="440" height="80" as="geometry" />
        </mxCell>
        <mxCell id="DiLrOkDjU9yglOGz8_8y-61" value="&lt;div style=&quot;font-family: &amp;#34;consolas&amp;#34; , &amp;#34;courier new&amp;#34; , monospace ; font-size: 14px ; line-height: 19px&quot;&gt;redZoneChunks = gp_vmem_protect_limit * runaway_detector_activation_percent to chunk&lt;/div&gt;" style="ellipse;shape=cloud;whiteSpace=wrap;html=1;labelBackgroundColor=none;fontColor=#000000;fillColor=none;" parent="1" vertex="1">
          <mxGeometry x="-740" y="820" width="440" height="80" as="geometry" />
        </mxCell>
        <mxCell id="DiLrOkDjU9yglOGz8_8y-64" style="edgeStyle=orthogonalEdgeStyle;rounded=0;orthogonalLoop=1;jettySize=auto;html=1;entryX=0.5;entryY=0;entryDx=0;entryDy=0;fontColor=#000000;" parent="1" source="DiLrOkDjU9yglOGz8_8y-62" target="DiLrOkDjU9yglOGz8_8y-63" edge="1">
          <mxGeometry relative="1" as="geometry" />
        </mxCell>
        <mxCell id="DiLrOkDjU9yglOGz8_8y-62" value="&lt;div style=&quot;font-family: &amp;#34;consolas&amp;#34; , &amp;#34;courier new&amp;#34; , monospace ; font-size: 14px ; line-height: 19px&quot;&gt;&lt;div style=&quot;font-family: &amp;#34;consolas&amp;#34; , &amp;#34;courier new&amp;#34; , monospace ; line-height: 19px&quot;&gt;&lt;div style=&quot;font-family: &amp;#34;consolas&amp;#34; , &amp;#34;courier new&amp;#34; , monospace ; line-height: 19px&quot;&gt;VmemTracker_ReserveVmem&lt;/div&gt;&lt;/div&gt;&lt;/div&gt;" style="rounded=0;whiteSpace=wrap;html=1;labelBackgroundColor=#FFFFFF;fontColor=#000000;fillColor=none;" parent="1" vertex="1">
          <mxGeometry x="-280" y="1120" width="200" height="40" as="geometry" />
        </mxCell>
        <mxCell id="DiLrOkDjU9yglOGz8_8y-66" style="edgeStyle=orthogonalEdgeStyle;rounded=0;orthogonalLoop=1;jettySize=auto;html=1;entryX=0.5;entryY=0;entryDx=0;entryDy=0;entryPerimeter=0;fontColor=#000000;" parent="1" source="DiLrOkDjU9yglOGz8_8y-63" target="DiLrOkDjU9yglOGz8_8y-65" edge="1">
          <mxGeometry relative="1" as="geometry" />
        </mxCell>
        <mxCell id="DiLrOkDjU9yglOGz8_8y-70" style="edgeStyle=orthogonalEdgeStyle;rounded=0;orthogonalLoop=1;jettySize=auto;html=1;fontColor=#000000;exitX=1;exitY=0.5;exitDx=0;exitDy=0;exitPerimeter=0;entryX=0;entryY=0.5;entryDx=0;entryDy=0;" parent="1" source="DiLrOkDjU9yglOGz8_8y-65" target="DiLrOkDjU9yglOGz8_8y-71" edge="1">
          <mxGeometry relative="1" as="geometry">
            <mxPoint x="40" y="1220" as="targetPoint" />
          </mxGeometry>
        </mxCell>
        <mxCell id="DiLrOkDjU9yglOGz8_8y-63" value="&lt;div style=&quot;font-family: &amp;#34;consolas&amp;#34; , &amp;#34;courier new&amp;#34; , monospace ; font-size: 14px ; line-height: 19px&quot;&gt;&lt;div style=&quot;font-family: &amp;#34;consolas&amp;#34; , &amp;#34;courier new&amp;#34; , monospace ; line-height: 19px&quot;&gt;&lt;div style=&quot;font-family: &amp;#34;consolas&amp;#34; , &amp;#34;courier new&amp;#34; , monospace ; line-height: 19px&quot;&gt;&lt;div style=&quot;font-family: &amp;#34;consolas&amp;#34; , &amp;#34;courier new&amp;#34; , monospace ; line-height: 19px&quot;&gt;&lt;div&gt;trackedBytes += newlyRequestedBytes;&lt;/div&gt;&lt;div&gt;int32 newszChunk = trackedBytes&amp;nbsp;to Chunk&lt;/div&gt;&lt;/div&gt;&lt;/div&gt;&lt;/div&gt;&lt;/div&gt;" style="rounded=0;whiteSpace=wrap;html=1;labelBackgroundColor=#FFFFFF;fontColor=#000000;fillColor=none;align=left;" parent="1" vertex="1">
          <mxGeometry x="-360" y="1200" width="360" height="40" as="geometry" />
        </mxCell>
        <mxCell id="DiLrOkDjU9yglOGz8_8y-74" style="edgeStyle=orthogonalEdgeStyle;rounded=0;orthogonalLoop=1;jettySize=auto;html=1;entryX=0.5;entryY=0;entryDx=0;entryDy=0;fontColor=#000000;" parent="1" source="DiLrOkDjU9yglOGz8_8y-65" target="DiLrOkDjU9yglOGz8_8y-68" edge="1">
          <mxGeometry relative="1" as="geometry" />
        </mxCell>
        <mxCell id="DiLrOkDjU9yglOGz8_8y-65" value="&lt;div style=&quot;font-family: &amp;#34;consolas&amp;#34; , &amp;#34;courier new&amp;#34; , monospace ; font-size: 14px ; line-height: 19px&quot;&gt;newszChunk &amp;gt; trackedVmemChunks&lt;/div&gt;" style="strokeWidth=2;html=1;shape=mxgraph.flowchart.decision;whiteSpace=wrap;labelBackgroundColor=none;fontColor=#000000;fillColor=none;" parent="1" vertex="1">
          <mxGeometry x="-325" y="1280" width="290" height="50" as="geometry" />
        </mxCell>
        <mxCell id="DiLrOkDjU9yglOGz8_8y-75" style="edgeStyle=orthogonalEdgeStyle;rounded=0;orthogonalLoop=1;jettySize=auto;html=1;exitX=0.5;exitY=1;exitDx=0;exitDy=0;entryX=0.5;entryY=0;entryDx=0;entryDy=0;fontColor=#000000;" parent="1" source="DiLrOkDjU9yglOGz8_8y-68" target="DiLrOkDjU9yglOGz8_8y-69" edge="1">
          <mxGeometry relative="1" as="geometry" />
        </mxCell>
        <mxCell id="DiLrOkDjU9yglOGz8_8y-68" value="&lt;div style=&quot;font-family: &amp;#34;consolas&amp;#34; , &amp;#34;courier new&amp;#34; , monospace ; font-size: 14px ; line-height: 19px&quot;&gt;&lt;div style=&quot;font-family: &amp;#34;consolas&amp;#34; , &amp;#34;courier new&amp;#34; , monospace ; line-height: 19px&quot;&gt;&lt;div style=&quot;font-family: &amp;#34;consolas&amp;#34; , &amp;#34;courier new&amp;#34; , monospace ; line-height: 19px&quot;&gt;&lt;div style=&quot;color: rgb(212 , 212 , 212) ; background-color: rgb(30 , 30 , 30) ; font-family: &amp;#34;consolas&amp;#34; , &amp;#34;courier new&amp;#34; , monospace ; line-height: 19px&quot;&gt;&lt;span style=&quot;color: #dcdcaa&quot;&gt;RedZoneHandler_DetectRunawaySession&lt;/span&gt;()&lt;/div&gt;&lt;/div&gt;&lt;/div&gt;&lt;/div&gt;" style="rounded=0;whiteSpace=wrap;html=1;labelBackgroundColor=#FFFFFF;fontColor=#000000;fillColor=none;" parent="1" vertex="1">
          <mxGeometry x="-360" y="1360" width="360" height="40" as="geometry" />
        </mxCell>
        <mxCell id="DiLrOkDjU9yglOGz8_8y-69" value="&lt;div style=&quot;font-family: &amp;#34;consolas&amp;#34; , &amp;#34;courier new&amp;#34; , monospace ; font-size: 14px ; line-height: 19px&quot;&gt;&lt;div style=&quot;font-family: &amp;#34;consolas&amp;#34; , &amp;#34;courier new&amp;#34; , monospace ; line-height: 19px&quot;&gt;&lt;div style=&quot;font-family: &amp;#34;consolas&amp;#34; , &amp;#34;courier new&amp;#34; , monospace ; line-height: 19px&quot;&gt;&lt;div style=&quot;color: rgb(212 , 212 , 212) ; background-color: rgb(30 , 30 , 30) ; font-family: &amp;#34;consolas&amp;#34; , &amp;#34;courier new&amp;#34; , monospace ; line-height: 19px&quot;&gt;&lt;div style=&quot;font-family: &amp;#34;consolas&amp;#34; , &amp;#34;courier new&amp;#34; , monospace ; line-height: 19px&quot;&gt;&lt;span style=&quot;color: #dcdcaa&quot;&gt;VmemTracker_ReserveVmemChunks&lt;/span&gt;&lt;/div&gt;&lt;/div&gt;&lt;/div&gt;&lt;/div&gt;&lt;/div&gt;" style="rounded=0;whiteSpace=wrap;html=1;labelBackgroundColor=#FFFFFF;fontColor=#000000;fillColor=none;" parent="1" vertex="1">
          <mxGeometry x="-360" y="1440" width="360" height="40" as="geometry" />
        </mxCell>
        <mxCell id="DiLrOkDjU9yglOGz8_8y-71" value="&lt;div style=&quot;font-family: &amp;#34;consolas&amp;#34; , &amp;#34;courier new&amp;#34; , monospace ; font-size: 14px ; line-height: 19px&quot;&gt;&lt;div style=&quot;font-family: &amp;#34;consolas&amp;#34; , &amp;#34;courier new&amp;#34; , monospace ; line-height: 19px&quot;&gt;&lt;div style=&quot;font-family: &amp;#34;consolas&amp;#34; , &amp;#34;courier new&amp;#34; , monospace ; line-height: 19px&quot;&gt;&lt;div style=&quot;color: rgb(212 , 212 , 212) ; background-color: rgb(30 , 30 , 30) ; font-family: &amp;#34;consolas&amp;#34; , &amp;#34;courier new&amp;#34; , monospace ; line-height: 19px&quot;&gt;&lt;span style=&quot;color: #4fc1ff&quot;&gt;return MemoryAllocation_Success&lt;/span&gt;&lt;/div&gt;&lt;/div&gt;&lt;/div&gt;&lt;/div&gt;" style="rounded=0;whiteSpace=wrap;html=1;labelBackgroundColor=#FFFFFF;fontColor=#000000;fillColor=none;" parent="1" vertex="1">
          <mxGeometry x="40" y="1285" width="260" height="40" as="geometry" />
        </mxCell>
        <mxCell id="DiLrOkDjU9yglOGz8_8y-78" value=":QE" style="shape=umlLifeline;perimeter=lifelinePerimeter;whiteSpace=wrap;html=1;container=1;collapsible=0;recursiveResize=0;outlineConnect=0;labelBackgroundColor=none;fontColor=#000000;fillColor=none;" parent="1" vertex="1">
          <mxGeometry x="-800" y="1800" width="100" height="360" as="geometry" />
        </mxCell>
        <mxCell id="DiLrOkDjU9yglOGz8_8y-79" value="" style="html=1;points=[];perimeter=orthogonalPerimeter;labelBackgroundColor=none;fontColor=#000000;fillColor=none;" parent="DiLrOkDjU9yglOGz8_8y-78" vertex="1">
          <mxGeometry x="45" y="60" width="10" height="200" as="geometry" />
        </mxCell>
        <mxCell id="DiLrOkDjU9yglOGz8_8y-80" style="edgeStyle=orthogonalEdgeStyle;rounded=0;orthogonalLoop=1;jettySize=auto;html=1;fontColor=#000000;" parent="1" edge="1">
          <mxGeometry relative="1" as="geometry">
            <mxPoint x="-560" y="1920" as="targetPoint" />
            <mxPoint x="-745" y="1920" as="sourcePoint" />
          </mxGeometry>
        </mxCell>
        <mxCell id="DiLrOkDjU9yglOGz8_8y-81" value="AssignResGroupOnMaster" style="edgeLabel;html=1;align=center;verticalAlign=middle;resizable=0;points=[];fontColor=#000000;" parent="DiLrOkDjU9yglOGz8_8y-80" vertex="1" connectable="0">
          <mxGeometry x="-0.219" y="2" relative="1" as="geometry">
            <mxPoint x="23" y="-8" as="offset" />
          </mxGeometry>
        </mxCell>
        <mxCell id="DiLrOkDjU9yglOGz8_8y-84" style="edgeStyle=orthogonalEdgeStyle;rounded=0;orthogonalLoop=1;jettySize=auto;html=1;entryX=0.5;entryY=0;entryDx=0;entryDy=0;fontColor=#000000;" parent="1" source="DiLrOkDjU9yglOGz8_8y-82" target="DiLrOkDjU9yglOGz8_8y-83" edge="1">
          <mxGeometry relative="1" as="geometry" />
        </mxCell>
        <mxCell id="DiLrOkDjU9yglOGz8_8y-82" value="&lt;div&gt;StartTransaction&lt;/div&gt;" style="rounded=0;whiteSpace=wrap;html=1;labelBackgroundColor=none;fontColor=#000000;fillColor=none;" parent="1" vertex="1">
          <mxGeometry x="-439" y="1760" width="199" height="40" as="geometry" />
        </mxCell>
        <mxCell id="DiLrOkDjU9yglOGz8_8y-83" value="&lt;span&gt;AssignResGroupOnMaster&lt;/span&gt;" style="rounded=0;whiteSpace=wrap;html=1;labelBackgroundColor=none;fontColor=#000000;fillColor=none;" parent="1" vertex="1">
          <mxGeometry x="-439" y="1840" width="199" height="40" as="geometry" />
        </mxCell>
        <mxCell id="DiLrOkDjU9yglOGz8_8y-87" style="edgeStyle=orthogonalEdgeStyle;rounded=0;orthogonalLoop=1;jettySize=auto;html=1;exitX=0.5;exitY=1;exitDx=0;exitDy=0;entryX=0.5;entryY=0;entryDx=0;entryDy=0;fontColor=#000000;" parent="1" source="DiLrOkDjU9yglOGz8_8y-85" target="DiLrOkDjU9yglOGz8_8y-86" edge="1">
          <mxGeometry relative="1" as="geometry" />
        </mxCell>
        <mxCell id="DiLrOkDjU9yglOGz8_8y-85" value="&lt;div&gt;CommitTransaction&lt;/div&gt;" style="rounded=0;whiteSpace=wrap;html=1;labelBackgroundColor=none;fontColor=#000000;fillColor=none;" parent="1" vertex="1">
          <mxGeometry x="-160" y="1760" width="160" height="40" as="geometry" />
        </mxCell>
        <mxCell id="DiLrOkDjU9yglOGz8_8y-86" value="&lt;span&gt;UnassignResGroup&lt;/span&gt;" style="rounded=0;whiteSpace=wrap;html=1;labelBackgroundColor=none;fontColor=#000000;fillColor=none;" parent="1" vertex="1">
          <mxGeometry x="-160" y="1840" width="160" height="40" as="geometry" />
        </mxCell>
      </root>
    </mxGraphModel>
  </diagram>
  <diagram id="aD-ZtOt2suvQ7EA-_qEL" name="PostGreSQL">
    <mxGraphModel dx="3076" dy="762" grid="1" gridSize="9" guides="1" tooltips="1" connect="1" arrows="1" fold="1" page="1" pageScale="1" pageWidth="827" pageHeight="1169" math="0" shadow="0">
      <root>
        <mxCell id="0" />
        <mxCell id="1" parent="0" />
        <mxCell id="6WaFR1qeJOESq9QHs_DM-5" style="edgeStyle=orthogonalEdgeStyle;rounded=0;orthogonalLoop=1;jettySize=auto;html=1;entryX=0.5;entryY=0;entryDx=0;entryDy=0;" edge="1" parent="1" source="6WaFR1qeJOESq9QHs_DM-2" target="6WaFR1qeJOESq9QHs_DM-3">
          <mxGeometry relative="1" as="geometry" />
        </mxCell>
        <mxCell id="6WaFR1qeJOESq9QHs_DM-14" style="edgeStyle=orthogonalEdgeStyle;rounded=0;orthogonalLoop=1;jettySize=auto;html=1;exitX=1;exitY=0.5;exitDx=0;exitDy=0;entryX=0;entryY=0.5;entryDx=0;entryDy=0;entryPerimeter=0;fontSize=13;fontColor=#000000;endArrow=none;endFill=0;dashed=1;" edge="1" parent="1" source="6WaFR1qeJOESq9QHs_DM-2" target="6WaFR1qeJOESq9QHs_DM-10">
          <mxGeometry relative="1" as="geometry" />
        </mxCell>
        <mxCell id="6WaFR1qeJOESq9QHs_DM-2" value="&lt;div style=&quot;font-family: &amp;#34;consolas&amp;#34; , &amp;#34;courier new&amp;#34; , monospace ; font-size: 14px ; line-height: 19px&quot;&gt;PostmasterMain&lt;/div&gt;" style="rounded=1;whiteSpace=wrap;html=1;fillColor=#f8cecc;strokeColor=#b85450;strokeWidth=2;" vertex="1" parent="1">
          <mxGeometry x="40" y="80" width="200" height="40" as="geometry" />
        </mxCell>
        <mxCell id="6WaFR1qeJOESq9QHs_DM-6" style="edgeStyle=orthogonalEdgeStyle;rounded=0;orthogonalLoop=1;jettySize=auto;html=1;exitX=0.5;exitY=1;exitDx=0;exitDy=0;entryX=0.5;entryY=0;entryDx=0;entryDy=0;" edge="1" parent="1" source="6WaFR1qeJOESq9QHs_DM-3" target="6WaFR1qeJOESq9QHs_DM-4">
          <mxGeometry relative="1" as="geometry" />
        </mxCell>
        <mxCell id="6WaFR1qeJOESq9QHs_DM-15" style="edgeStyle=orthogonalEdgeStyle;rounded=0;orthogonalLoop=1;jettySize=auto;html=1;exitX=1;exitY=0.5;exitDx=0;exitDy=0;entryX=0;entryY=0.5;entryDx=0;entryDy=0;entryPerimeter=0;fontSize=13;fontColor=#000000;endArrow=none;endFill=0;dashed=1;" edge="1" parent="1" source="6WaFR1qeJOESq9QHs_DM-3" target="6WaFR1qeJOESq9QHs_DM-11">
          <mxGeometry relative="1" as="geometry" />
        </mxCell>
        <mxCell id="6WaFR1qeJOESq9QHs_DM-3" value="&lt;div&gt;reset_shared(PostPortNumber);&lt;/div&gt;" style="rounded=1;whiteSpace=wrap;html=1;" vertex="1" parent="1">
          <mxGeometry x="40" y="200" width="200" height="40" as="geometry" />
        </mxCell>
        <mxCell id="6WaFR1qeJOESq9QHs_DM-17" style="edgeStyle=orthogonalEdgeStyle;rounded=0;orthogonalLoop=1;jettySize=auto;html=1;exitX=1;exitY=0.5;exitDx=0;exitDy=0;entryX=0;entryY=0.5;entryDx=0;entryDy=0;entryPerimeter=0;dashed=1;fontSize=13;fontColor=#000000;endArrow=none;endFill=0;" edge="1" parent="1" source="6WaFR1qeJOESq9QHs_DM-4" target="6WaFR1qeJOESq9QHs_DM-16">
          <mxGeometry relative="1" as="geometry" />
        </mxCell>
        <mxCell id="6WaFR1qeJOESq9QHs_DM-31" style="edgeStyle=orthogonalEdgeStyle;rounded=0;orthogonalLoop=1;jettySize=auto;html=1;exitX=0;exitY=0.5;exitDx=0;exitDy=0;entryX=1;entryY=0.5;entryDx=0;entryDy=0;fontSize=13;fontColor=#000000;endArrow=openThin;endFill=0;" edge="1" parent="1" source="6WaFR1qeJOESq9QHs_DM-4" target="6WaFR1qeJOESq9QHs_DM-25">
          <mxGeometry relative="1" as="geometry" />
        </mxCell>
        <mxCell id="6WaFR1qeJOESq9QHs_DM-4" value="&lt;div&gt;&lt;span&gt;ServerLoop&lt;/span&gt;&lt;/div&gt;" style="rounded=1;whiteSpace=wrap;html=1;" vertex="1" parent="1">
          <mxGeometry x="40" y="320" width="200" height="40" as="geometry" />
        </mxCell>
        <mxCell id="6WaFR1qeJOESq9QHs_DM-10" value="Postmaster main entry point" style="shape=note;whiteSpace=wrap;html=1;backgroundOutline=1;darkOpacity=0.05;labelBackgroundColor=none;fontSize=13;fontColor=#000000;" vertex="1" parent="1">
          <mxGeometry x="320" y="60" width="200" height="80" as="geometry" />
        </mxCell>
        <mxCell id="6WaFR1qeJOESq9QHs_DM-11" value="&lt;span style=&quot;text-align: left&quot;&gt;Set up shared memory and semaphores&lt;/span&gt;" style="shape=note;whiteSpace=wrap;html=1;backgroundOutline=1;darkOpacity=0.05;labelBackgroundColor=none;fontSize=13;fontColor=#000000;" vertex="1" parent="1">
          <mxGeometry x="320" y="180" width="200" height="80" as="geometry" />
        </mxCell>
        <mxCell id="6WaFR1qeJOESq9QHs_DM-16" value="&lt;div style=&quot;font-family: &amp;#34;consolas&amp;#34; , &amp;#34;courier new&amp;#34; , monospace ; font-size: 14px ; line-height: 19px&quot;&gt;Main idle loop of postmaster&lt;/div&gt;" style="shape=note;whiteSpace=wrap;html=1;backgroundOutline=1;darkOpacity=0.05;labelBackgroundColor=none;fontSize=13;fontColor=#000000;" vertex="1" parent="1">
          <mxGeometry x="320" y="300" width="200" height="80" as="geometry" />
        </mxCell>
        <mxCell id="6WaFR1qeJOESq9QHs_DM-27" style="edgeStyle=orthogonalEdgeStyle;rounded=0;orthogonalLoop=1;jettySize=auto;html=1;exitX=0.5;exitY=0;exitDx=0;exitDy=0;entryX=0.5;entryY=1;entryDx=0;entryDy=0;entryPerimeter=0;fontSize=13;fontColor=#000000;endArrow=none;endFill=0;dashed=1;" edge="1" parent="1" source="6WaFR1qeJOESq9QHs_DM-25" target="6WaFR1qeJOESq9QHs_DM-26">
          <mxGeometry relative="1" as="geometry" />
        </mxCell>
        <mxCell id="6WaFR1qeJOESq9QHs_DM-32" style="edgeStyle=orthogonalEdgeStyle;rounded=0;orthogonalLoop=1;jettySize=auto;html=1;entryX=0.5;entryY=0;entryDx=0;entryDy=0;fontSize=13;fontColor=#000000;endArrow=openThin;endFill=0;" edge="1" parent="1" source="6WaFR1qeJOESq9QHs_DM-25" target="6WaFR1qeJOESq9QHs_DM-28">
          <mxGeometry relative="1" as="geometry" />
        </mxCell>
        <mxCell id="6WaFR1qeJOESq9QHs_DM-25" value="&lt;div style=&quot;font-family: &amp;#34;consolas&amp;#34; , &amp;#34;courier new&amp;#34; , monospace ; font-size: 14px ; line-height: 19px&quot;&gt;port = ConnCreate(ListenSocket[i]);&lt;/div&gt;" style="rounded=1;whiteSpace=wrap;html=1;labelBackgroundColor=none;fontSize=13;fontColor=#000000;strokeWidth=2;" vertex="1" parent="1">
          <mxGeometry x="-320" y="320" width="280" height="40" as="geometry" />
        </mxCell>
        <mxCell id="6WaFR1qeJOESq9QHs_DM-26" value="&lt;div style=&quot;font-family: &amp;#34;consolas&amp;#34; , &amp;#34;courier new&amp;#34; , monospace ; font-size: 14px ; line-height: 19px&quot;&gt;&lt;div style=&quot;font-family: &amp;#34;consolas&amp;#34; , &amp;#34;courier new&amp;#34; , monospace ; line-height: 19px&quot;&gt;create a local connection data structure&lt;/div&gt;&lt;/div&gt;" style="shape=note;whiteSpace=wrap;html=1;backgroundOutline=1;darkOpacity=0.05;labelBackgroundColor=none;fontSize=13;fontColor=#000000;" vertex="1" parent="1">
          <mxGeometry x="-290" y="200" width="220" height="80" as="geometry" />
        </mxCell>
        <mxCell id="6WaFR1qeJOESq9QHs_DM-33" style="edgeStyle=orthogonalEdgeStyle;rounded=0;orthogonalLoop=1;jettySize=auto;html=1;entryX=1;entryY=0.5;entryDx=0;entryDy=0;fontSize=13;fontColor=#000000;endArrow=openThin;endFill=0;" edge="1" parent="1" source="6WaFR1qeJOESq9QHs_DM-28" target="6WaFR1qeJOESq9QHs_DM-30">
          <mxGeometry relative="1" as="geometry" />
        </mxCell>
        <mxCell id="6WaFR1qeJOESq9QHs_DM-28" value="&lt;div style=&quot;font-family: &amp;#34;consolas&amp;#34; , &amp;#34;courier new&amp;#34; , monospace ; font-size: 14px ; line-height: 19px&quot;&gt;&lt;div style=&quot;font-family: &amp;#34;consolas&amp;#34; , &amp;#34;courier new&amp;#34; , monospace ; line-height: 19px&quot;&gt;BackendStartup(port);&lt;/div&gt;&lt;/div&gt;" style="rounded=1;whiteSpace=wrap;html=1;labelBackgroundColor=none;fontSize=13;fontColor=#000000;strokeWidth=2;" vertex="1" parent="1">
          <mxGeometry x="-320" y="400" width="280" height="40" as="geometry" />
        </mxCell>
        <mxCell id="6WaFR1qeJOESq9QHs_DM-35" style="edgeStyle=orthogonalEdgeStyle;rounded=0;orthogonalLoop=1;jettySize=auto;html=1;fontSize=13;fontColor=#000000;endArrow=openThin;endFill=0;entryX=0.5;entryY=0;entryDx=0;entryDy=0;" edge="1" parent="1" source="6WaFR1qeJOESq9QHs_DM-30" target="6WaFR1qeJOESq9QHs_DM-43">
          <mxGeometry relative="1" as="geometry" />
        </mxCell>
        <mxCell id="6WaFR1qeJOESq9QHs_DM-30" value="&lt;div style=&quot;font-family: &amp;#34;consolas&amp;#34; , &amp;#34;courier new&amp;#34; , monospace ; font-size: 14px ; line-height: 19px&quot;&gt;pid = fork_process();&lt;/div&gt;" style="rounded=1;whiteSpace=wrap;html=1;labelBackgroundColor=none;fontSize=13;fontColor=#000000;" vertex="1" parent="1">
          <mxGeometry x="-560" y="400" width="200" height="40" as="geometry" />
        </mxCell>
        <mxCell id="6WaFR1qeJOESq9QHs_DM-37" style="edgeStyle=none;rounded=0;orthogonalLoop=1;jettySize=auto;html=1;exitX=1;exitY=0.5;exitDx=0;exitDy=0;entryX=1.033;entryY=0.5;entryDx=0;entryDy=0;entryPerimeter=0;fontSize=13;fontColor=#000000;endArrow=none;endFill=0;dashed=1;" edge="1" parent="1" source="6WaFR1qeJOESq9QHs_DM-34" target="6WaFR1qeJOESq9QHs_DM-36">
          <mxGeometry relative="1" as="geometry" />
        </mxCell>
        <mxCell id="6WaFR1qeJOESq9QHs_DM-51" style="edgeStyle=none;rounded=0;orthogonalLoop=1;jettySize=auto;html=1;entryX=1;entryY=0.5;entryDx=0;entryDy=0;fontSize=13;fontColor=#000000;endArrow=openThin;endFill=0;" edge="1" parent="1" source="6WaFR1qeJOESq9QHs_DM-34" target="6WaFR1qeJOESq9QHs_DM-38">
          <mxGeometry relative="1" as="geometry" />
        </mxCell>
        <mxCell id="6WaFR1qeJOESq9QHs_DM-34" value="&lt;div style=&quot;font-family: &amp;#34;consolas&amp;#34; , &amp;#34;courier new&amp;#34; , monospace ; font-size: 14px ; line-height: 19px&quot;&gt;BackendRun(port)&lt;/div&gt;" style="rounded=1;whiteSpace=wrap;html=1;labelBackgroundColor=none;fontSize=13;fillColor=#d5e8d4;strokeColor=#82b366;strokeWidth=2;" vertex="1" parent="1">
          <mxGeometry x="-560" y="760" width="200" height="40" as="geometry" />
        </mxCell>
        <mxCell id="6WaFR1qeJOESq9QHs_DM-36" value="&lt;div style=&quot;font-family: &amp;#34;consolas&amp;#34; , &amp;#34;courier new&amp;#34; , monospace ; font-size: 14px ; line-height: 19px&quot;&gt;&lt;div style=&quot;font-family: &amp;#34;consolas&amp;#34; , &amp;#34;courier new&amp;#34; , monospace ; line-height: 19px&quot;&gt;fork一个进程，启动后端进程&lt;/div&gt;&lt;/div&gt;" style="shape=note;whiteSpace=wrap;html=1;backgroundOutline=1;darkOpacity=0.05;labelBackgroundColor=none;fontSize=13;fontColor=#000000;" vertex="1" parent="1">
          <mxGeometry x="-280" y="740" width="230" height="80" as="geometry" />
        </mxCell>
        <mxCell id="6WaFR1qeJOESq9QHs_DM-42" style="edgeStyle=none;rounded=0;orthogonalLoop=1;jettySize=auto;html=1;exitX=0.5;exitY=0;exitDx=0;exitDy=0;entryX=0.5;entryY=1;entryDx=0;entryDy=0;entryPerimeter=0;dashed=1;fontSize=13;fontColor=#000000;endArrow=none;endFill=0;" edge="1" parent="1" source="6WaFR1qeJOESq9QHs_DM-38" target="6WaFR1qeJOESq9QHs_DM-41">
          <mxGeometry relative="1" as="geometry" />
        </mxCell>
        <mxCell id="6WaFR1qeJOESq9QHs_DM-38" value="&lt;div style=&quot;font-family: &amp;#34;consolas&amp;#34; , &amp;#34;courier new&amp;#34; , monospace ; font-size: 14px ; line-height: 19px&quot;&gt;PostgresMain(ac, av,&lt;/div&gt;&lt;div style=&quot;font-family: &amp;#34;consolas&amp;#34; , &amp;#34;courier new&amp;#34; , monospace ; font-size: 14px ; line-height: 19px&quot;&gt;port-&amp;gt;database_name,&lt;/div&gt;&lt;div style=&quot;font-family: &amp;#34;consolas&amp;#34; , &amp;#34;courier new&amp;#34; , monospace ; font-size: 14px ; line-height: 19px&quot;&gt;port-&amp;gt;user_name);&lt;/div&gt;" style="rounded=1;whiteSpace=wrap;html=1;labelBackgroundColor=none;fontSize=13;fontColor=#000000;strokeWidth=2;" vertex="1" parent="1">
          <mxGeometry x="-900" y="742.5" width="252" height="75" as="geometry" />
        </mxCell>
        <mxCell id="6WaFR1qeJOESq9QHs_DM-41" value="&lt;div style=&quot;font-family: &amp;#34;consolas&amp;#34; , &amp;#34;courier new&amp;#34; , monospace ; font-size: 14px ; line-height: 19px&quot;&gt;postgres main loop -- all backends, interactive or otherwise start here&lt;/div&gt;" style="shape=note;whiteSpace=wrap;html=1;backgroundOutline=1;darkOpacity=0.05;labelBackgroundColor=none;fontSize=13;fontColor=#000000;" vertex="1" parent="1">
          <mxGeometry x="-900" y="648" width="252" height="72" as="geometry" />
        </mxCell>
        <mxCell id="6WaFR1qeJOESq9QHs_DM-48" style="edgeStyle=none;rounded=0;orthogonalLoop=1;jettySize=auto;html=1;entryX=0.5;entryY=0;entryDx=0;entryDy=0;fontSize=13;fontColor=#000000;endArrow=openThin;endFill=0;" edge="1" parent="1" source="6WaFR1qeJOESq9QHs_DM-43" target="6WaFR1qeJOESq9QHs_DM-44">
          <mxGeometry relative="1" as="geometry" />
        </mxCell>
        <mxCell id="6WaFR1qeJOESq9QHs_DM-43" value="if(pid == 0) // child" style="rhombus;whiteSpace=wrap;html=1;labelBackgroundColor=none;fontSize=13;fontColor=#000000;" vertex="1" parent="1">
          <mxGeometry x="-560" y="480" width="200" height="40" as="geometry" />
        </mxCell>
        <mxCell id="6WaFR1qeJOESq9QHs_DM-49" style="edgeStyle=none;rounded=0;orthogonalLoop=1;jettySize=auto;html=1;fontSize=13;fontColor=#000000;endArrow=openThin;endFill=0;" edge="1" parent="1" source="6WaFR1qeJOESq9QHs_DM-44" target="6WaFR1qeJOESq9QHs_DM-47">
          <mxGeometry relative="1" as="geometry" />
        </mxCell>
        <mxCell id="6WaFR1qeJOESq9QHs_DM-44" value="&lt;div style=&quot;font-family: &amp;#34;consolas&amp;#34; , &amp;#34;courier new&amp;#34; , monospace ; font-size: 14px ; line-height: 19px&quot;&gt;&lt;div&gt;&lt;span style=&quot;text-align: left&quot;&gt;// postmaster subprocess&lt;/span&gt;&lt;br&gt;&lt;/div&gt;&lt;div style=&quot;text-align: left&quot;&gt;IsUnderPostmaster = true;&lt;/div&gt;&lt;div style=&quot;text-align: left&quot;&gt;&lt;span&gt;MyProcPid = getpid();&amp;nbsp; &amp;nbsp;&lt;/span&gt;&lt;/div&gt;&lt;/div&gt;" style="rounded=1;whiteSpace=wrap;html=1;labelBackgroundColor=none;fontSize=13;fontColor=#000000;align=center;" vertex="1" parent="1">
          <mxGeometry x="-560" y="560" width="200" height="80" as="geometry" />
        </mxCell>
        <mxCell id="6WaFR1qeJOESq9QHs_DM-50" style="edgeStyle=none;rounded=0;orthogonalLoop=1;jettySize=auto;html=1;exitX=0.5;exitY=1;exitDx=0;exitDy=0;entryX=0.5;entryY=0;entryDx=0;entryDy=0;fontSize=13;fontColor=#000000;endArrow=openThin;endFill=0;" edge="1" parent="1" source="6WaFR1qeJOESq9QHs_DM-47" target="6WaFR1qeJOESq9QHs_DM-34">
          <mxGeometry relative="1" as="geometry" />
        </mxCell>
        <mxCell id="6WaFR1qeJOESq9QHs_DM-47" value="&lt;div style=&quot;font-family: &amp;#34;consolas&amp;#34; , &amp;#34;courier new&amp;#34; , monospace ; font-size: 14px ; line-height: 19px&quot;&gt;&lt;div&gt;// Close the postmaster&#39;s sockets&lt;/div&gt;&lt;div&gt;ClosePostmasterPorts(false);&lt;/div&gt;&lt;/div&gt;" style="rounded=1;whiteSpace=wrap;html=1;labelBackgroundColor=none;fontSize=13;fontColor=#000000;align=left;" vertex="1" parent="1">
          <mxGeometry x="-605" y="680" width="290" height="40" as="geometry" />
        </mxCell>
      </root>
    </mxGraphModel>
  </diagram>
</mxfile>
